<svg width="24" height="24" viewBox="0 0 24 24" fill="none" xmlns="http://www.w3.org/2000/svg">
<path fill-rule="evenodd" clip-rule="evenodd" d="M9.38459 2H7.4528C3.72991 2 2 4.17544 2 8.22847V15.7715C2 19.6361 4.36352 22 8.22905 22H15.7533C19.6114 22 21.9735 19.6347 21.9735 15.7715L22 10.9706C22 6.92273 20.3106 4.94127 16.5296 4.94127H13.7951C13.3298 4.94034 12.8906 4.72042 12.6098 4.34714L11.7281 3.17286C11.1753 2.43479 10.3068 2 9.38459 2ZM7.00326 3H8.93504C9.40103 3 9.83982 3.21969 10.1194 3.59297L11.002 4.76841C11.5564 5.50546 12.4232 5.93943 13.3441 5.94127L16.08 5.94127C19.0051 5.94127 20.1009 7.22646 20.1009 10.5151L20.0745 15.3161C20.0744 18.3816 18.3613 20.0971 15.3038 20.0971H7.7795C4.71415 20.0971 3 18.3827 3 15.3201V7.777C3 4.46225 4.16278 3 7.00326 3ZM17.3425 14.5438C17.3425 14.143 17.0181 13.8181 16.6178 13.8181H7.34695L7.24861 13.8247C6.89484 13.8727 6.62218 14.1764 6.62218 14.5438C6.62218 14.9446 6.94667 15.2695 7.34695 15.2695H16.6178L16.7161 15.2629C17.0699 15.2149 17.3425 14.9112 17.3425 14.5438Z" fill="#697077"/>
</svg>
