<svg width="194" height="195" viewBox="0 0 194 195" fill="none" xmlns="http://www.w3.org/2000/svg">
<path fill-rule="evenodd" clip-rule="evenodd" d="M93.2961 0.0742798C146.018 -1.96759 189.99 38.2618 193.978 89.5327C194.296 93.6255 191.092 97.1364 186.986 97.1364C183.31 97.1364 180.286 94.2944 180.001 90.6302C176.557 46.3592 138.275 11.7086 92.6152 14.141C52.1594 16.294 16.2942 52.1593 14.1401 92.615C11.7087 138.275 46.3583 176.557 90.6294 180.001C94.2935 180.286 97.1365 183.31 97.1365 186.986C97.1365 191.183 93.7157 194.304 89.5318 193.978C38.262 189.99 -1.96745 146.02 0.0744171 93.299C2.02615 42.8853 42.8824 2.02802 93.2961 0.0742798Z" fill="#CAE6FF"/>
</svg>
