<svg width="13" height="13" viewBox="0 0 13 13" fill="none" xmlns="http://www.w3.org/2000/svg">
<path fill-rule="evenodd" clip-rule="evenodd" d="M0.244046 2.3852C0.432666 1.29016 1.30306 0.485205 2.40158 0.318058C3.45414 0.157905 4.89809 0 6.49994 0C8.1018 0 9.54575 0.157905 10.5983 0.318058C11.6968 0.485205 12.5672 1.29016 12.7558 2.3852C12.8873 3.14839 12.9999 4.11788 12.9999 5.19995C12.9999 6.28203 12.8873 7.25152 12.7558 8.01471C12.5672 9.10975 11.6968 9.9147 10.5983 10.0819C9.63538 10.2284 8.34488 10.373 6.90559 10.3966L2.93065 12.7454C2.49735 13.0014 1.94998 12.6891 1.94998 12.1858V9.97348C1.07026 9.68095 0.40596 8.95471 0.244046 8.01471C0.112587 7.25152 0 6.28203 0 5.19995C0 4.11788 0.112587 3.14839 0.244046 2.3852ZM2.59998 3.89997C2.59998 3.54098 2.89099 3.24997 3.24997 3.24997H9.74992C10.1089 3.24997 10.3999 3.54098 10.3999 3.89997C10.3999 4.25895 10.1089 4.54996 9.74992 4.54996H3.24997C2.89099 4.54996 2.59998 4.25895 2.59998 3.89997ZM2.59998 6.49994C2.59998 6.14096 2.89099 5.84995 3.24997 5.84995H5.84995C6.20893 5.84995 6.49994 6.14096 6.49994 6.49994C6.49994 6.85892 6.20893 7.14994 5.84995 7.14994H3.24997C2.89099 7.14994 2.59998 6.85892 2.59998 6.49994Z" fill="#181A1B"/>
</svg>
