<svg width="26" height="22" viewBox="0 0 26 22" fill="none" xmlns="http://www.w3.org/2000/svg">
<path d="M13.4715 20.854H6.07384C2.375 20.854 1.14596 18.3964 1.14596 15.927V6.07298C1.14596 2.37479 2.375 1.14596 6.07384 1.14596H13.4715C17.1704 1.14596 18.3994 2.37479 18.3994 6.07298V15.927C18.3994 19.6252 17.1587 20.854 13.4715 20.854Z" stroke="white" stroke-width="2.25" stroke-linecap="round" stroke-linejoin="round"/>
<path d="M21.653 16.9685L18.399 14.6864V7.30175L21.653 5.01964C23.2449 3.90784 24.5559 4.58663 24.5559 6.54105V15.4588C24.5559 17.4133 23.2449 18.092 21.653 16.9685Z" stroke="white" stroke-width="2.25" stroke-linecap="round" stroke-linejoin="round"/>
<path d="M12.2664 9.82962C13.236 9.82962 14.0221 9.04367 14.0221 8.07415C14.0221 7.10463 13.236 6.31868 12.2664 6.31868C11.2967 6.31868 10.5106 7.10463 10.5106 8.07415C10.5106 9.04367 11.2967 9.82962 12.2664 9.82962Z" stroke="white" stroke-width="2.25" stroke-linecap="round" stroke-linejoin="round"/>
</svg>
