<svg width="20" height="26" viewBox="0 0 20 26" fill="none" xmlns="http://www.w3.org/2000/svg">
<path d="M14.6359 7.31423H5.76775H5.36465V13.4268L8.99252 17.3563H11.4111L14.6359 13.8634V7.31423Z" fill="white" fill-opacity="0.8"/>
<path d="M10.0003 16.777C12.5614 16.777 14.6359 14.7029 14.6359 12.1422V5.76938C14.6359 3.20865 12.5614 1.13458 10.0003 1.13458C7.43909 1.13458 5.36465 3.20865 5.36465 5.76938V12.1422C5.36465 14.7029 7.43909 16.777 10.0003 16.777Z" stroke="white" stroke-width="2.25" stroke-linecap="round" stroke-linejoin="round"/>
<path d="M1.13458 9.99852V11.9683C1.13458 16.858 5.10962 20.8324 10.0002 20.8324C14.8908 20.8324 18.8658 16.858 18.8658 11.9683V9.99852" stroke="white" stroke-width="2.25" stroke-linecap="round" stroke-linejoin="round"/>
<path d="M9.99951 20.8322V24.3083" stroke="white" stroke-width="2.25" stroke-linecap="round" stroke-linejoin="round"/>
</svg>
