<svg width="26" height="26" viewBox="0 0 26 26" fill="none" xmlns="http://www.w3.org/2000/svg">
<path d="M8.83294 21.2302H8.24242C3.51831 21.2302 1.15625 20.0494 1.15625 14.1453V8.24118C1.15625 3.51789 3.51831 1.15625 8.24242 1.15625H17.6907C22.4148 1.15625 24.7768 3.51789 24.7768 8.24118V14.1453C24.7768 18.8686 22.4148 21.2302 17.6907 21.2302H17.1001C16.734 21.2302 16.3797 21.4073 16.1553 21.7025L14.3838 24.0642C13.6043 25.1033 12.3288 25.1033 11.5493 24.0642L9.77776 21.7025C9.5888 21.4428 9.15182 21.2302 8.83294 21.2302Z" stroke="#0060FF" stroke-width="2.25" stroke-miterlimit="10" stroke-linecap="round" stroke-linejoin="round"/>
<path d="M17.6868 11.784H17.6975" stroke="#0060FF" stroke-width="3" stroke-linecap="round" stroke-linejoin="round"/>
<path d="M12.9605 11.784H12.9711" stroke="#0060FF" stroke-width="3" stroke-linecap="round" stroke-linejoin="round"/>
<path d="M8.23513 11.784H8.24574" stroke="#0060FF" stroke-width="3" stroke-linecap="round" stroke-linejoin="round"/>
</svg>
