<svg width="194" height="195" viewBox="0 0 194 195" fill="none" xmlns="http://www.w3.org/2000/svg">
<path fill-rule="evenodd" clip-rule="evenodd" d="M100.704 193.927C47.982 195.969 4.0103 155.74 0.0217116 104.469C-0.295734 100.376 2.90776 96.8651 7.01351 96.8651C10.6897 96.8651 13.7139 99.7071 13.9993 103.371C17.4431 147.642 55.7248 182.293 101.385 179.86C141.841 177.707 177.706 141.842 179.86 101.386C182.291 55.7264 147.642 17.4447 103.371 14.0009C99.7065 13.7155 96.8635 10.6913 96.8635 7.01511C96.8635 2.81823 100.284 -0.302146 104.468 0.0233102C155.738 4.0119 195.967 47.9815 193.926 100.702C191.974 151.116 151.118 191.973 100.704 193.927Z" fill="#CAE6FF"/>
</svg>
