<svg width="28" height="28" viewBox="0 0 28 28" fill="none" xmlns="http://www.w3.org/2000/svg">
<path d="M14 11.6641C12.7167 11.6641 11.6667 12.7139 11.6667 13.997C11.6667 15.2801 12.7167 16.3299 14 16.3299C15.2833 16.3299 16.3333 15.2801 16.3333 13.997C16.3333 12.7139 15.2833 11.6641 14 11.6641ZM20.9999 11.6641C19.7166 11.6641 18.6666 12.7139 18.6666 13.997C18.6666 15.2801 19.7166 16.3299 20.9999 16.3299C22.2832 16.3299 23.3332 15.2801 23.3332 13.997C23.3332 12.7139 22.2832 11.6641 20.9999 11.6641ZM7.00013 11.6641C5.71682 11.6641 4.66683 12.7139 4.66683 13.997C4.66683 15.2801 5.71682 16.3299 7.00013 16.3299C8.28345 16.3299 9.33343 15.2801 9.33343 13.997C9.33343 12.7139 8.28345 11.6641 7.00013 11.6641Z" fill="#0060FF"/>
</svg>
