<svg width="18" height="19" viewBox="0 0 18 19" fill="none" xmlns="http://www.w3.org/2000/svg">
<path d="M6.63542 8.4043C6.5494 8.3957 6.44617 8.3957 6.35155 8.4043C4.30423 8.33548 2.67843 6.65806 2.67843 4.59355C2.67843 2.48602 4.38165 0.774194 6.49778 0.774194C8.60531 0.774194 10.3171 2.48602 10.3171 4.59355C10.3085 6.65806 8.68273 8.33548 6.63542 8.4043Z" stroke="#697077" stroke-width="1.5" stroke-linecap="round" stroke-linejoin="round"/>
<path d="M12.8709 2.49496C14.5397 2.49496 15.8817 3.8455 15.8817 5.50571C15.8817 7.13152 14.5913 8.45625 12.9827 8.51646C12.9139 8.50786 12.8365 8.50786 12.7591 8.51646" stroke="#697077" stroke-width="1.5" stroke-linecap="round" stroke-linejoin="round"/>
<path d="M2.33548 11.5788C0.253763 12.9724 0.253763 15.2433 2.33548 16.6283C4.70108 18.2111 8.58065 18.2111 10.9462 16.6283C13.028 15.2347 13.028 12.9638 10.9462 11.5788C8.58925 10.0046 4.70968 10.0046 2.33548 11.5788Z" stroke="#697077" stroke-width="1.5" stroke-linecap="round" stroke-linejoin="round"/>
<path d="M14.5333 16.2581C15.1526 16.129 15.7376 15.8796 16.2193 15.5097C17.5612 14.5032 17.5612 12.843 16.2193 11.8366C15.7462 11.4753 15.1698 11.2344 14.5591 11.0968" stroke="#697077" stroke-width="1.5" stroke-linecap="round" stroke-linejoin="round"/>
</svg>
