<svg width="18" height="21" viewBox="0 0 18 21" fill="none" xmlns="http://www.w3.org/2000/svg">
<path d="M12.4995 4.99524V4.70551C12.4995 2.57116 10.7707 0.842437 8.63639 0.842437C6.50204 0.842437 4.77331 2.57116 4.77331 4.70551V9.53436" stroke="white" stroke-width="1.66129" stroke-linecap="round" stroke-linejoin="round"/>
<path d="M5.7777 12.6155C6.48271 13.3978 7.50643 13.8807 8.63637 13.8807C10.7707 13.8807 12.4995 12.152 12.4995 10.0176V9.53474" stroke="white" stroke-width="1.66129" stroke-linecap="round" stroke-linejoin="round"/>
<path d="M3.59559 15.2808C4.91869 16.5074 6.68605 17.2607 8.6369 17.2607C12.7124 17.2607 16.025 13.9481 16.025 9.87253V8.23072" stroke="white" stroke-width="1.66129" stroke-linecap="round" stroke-linejoin="round"/>
<path d="M1.24904 8.23072V9.87253C1.24904 10.8962 1.45186 11.862 1.82851 12.7505" stroke="white" stroke-width="1.66129" stroke-linecap="round" stroke-linejoin="round"/>
<path d="M16.4304 1.65367L0.842932 17.2508" stroke="white" stroke-width="1.66129" stroke-linecap="round" stroke-linejoin="round"/>
<path d="M7.67058 1.80819V4.7055" stroke="white" stroke-width="1.66129" stroke-linecap="round" stroke-linejoin="round"/>
<path d="M8.63634 17.2603V20.1576" stroke="white" stroke-width="1.66129" stroke-linecap="round" stroke-linejoin="round"/>
</svg>
