<svg width="20" height="20" viewBox="0 0 20 20" fill="none" xmlns="http://www.w3.org/2000/svg">
<path d="M9.04727 11.9911C10.4026 11.9911 11.5014 10.8924 11.5014 9.537C11.5014 8.18162 10.4026 7.08287 9.04727 7.08287C7.6919 7.08287 6.59315 8.18162 6.59315 9.537C6.59315 10.8924 7.6919 11.9911 9.04727 11.9911Z" stroke="#697077" stroke-width="1.5" stroke-linecap="round" stroke-linejoin="round"/>
<path d="M13.5799 17.6416C13.5799 15.6067 11.5537 13.9472 9.04721 13.9472C6.54068 13.9472 4.51449 15.5979 4.51449 17.6416" stroke="#697077" stroke-width="1.5" stroke-linecap="round" stroke-linejoin="round"/>
<path d="M17.3798 10.9169C17.3798 15.5021 13.668 19.2138 9.08289 19.2138C4.49778 19.2138 0.786019 15.5021 0.786019 10.9169C0.786019 6.33182 4.49778 2.62006 9.08289 2.62006C10.227 2.62006 11.3187 2.84713 12.3143 3.26634C12.2008 3.61568 12.1396 3.9825 12.1396 4.36678C12.1396 5.02179 12.323 5.64187 12.6462 6.16588C12.8209 6.46283 13.0479 6.73354 13.3099 6.96061C13.9213 7.51956 14.7335 7.8602 15.6331 7.8602C16.0173 7.8602 16.3841 7.79904 16.7247 7.67677C17.144 8.6724 17.3798 9.77284 17.3798 10.9169Z" stroke="#697077" stroke-width="1.5" stroke-linecap="round" stroke-linejoin="round"/>
<path d="M19.9997 4.28738C19.9997 4.63037 19.9568 4.96263 19.871 5.28419C19.7746 5.71292 19.6031 6.13095 19.378 6.49538C18.8635 7.36357 18.0382 8.03881 17.0521 8.34965C16.6341 8.49971 16.1839 8.57476 15.7123 8.57476C14.6083 8.57476 13.6115 8.15671 12.8612 7.47073C12.5396 7.19205 12.261 6.8598 12.0466 6.49538C11.65 5.85227 11.4249 5.09126 11.4249 4.28738C11.4249 3.81577 11.4999 3.36558 11.6393 2.93684C11.8429 2.31517 12.1859 1.75785 12.6361 1.29696C13.4185 0.493072 14.5118 0 15.7123 0C16.9771 0 18.1239 0.546659 18.8957 1.42557C19.5817 2.18658 19.9997 3.1941 19.9997 4.28738Z" fill="#F7F7F8"/>
<path d="M17.7755 4.32925H13.4892" stroke="#697077" stroke-miterlimit="10" stroke-linecap="round" stroke-linejoin="round"/>
<path d="M15.6313 2.22961V6.53022" stroke="#697077" stroke-miterlimit="10" stroke-linecap="round" stroke-linejoin="round"/>
</svg>
