<svg width="138" height="22" viewBox="0 0 138 22" fill="none" xmlns="http://www.w3.org/2000/svg">
<path fill-rule="evenodd" clip-rule="evenodd" d="M42.1429 11.0374C42.1429 6.60411 45.7368 3.0102 50.1701 3.0102C54.6034 3.0102 58.1973 6.60411 58.1973 11.0374C58.1973 15.4707 54.6034 19.0646 50.1701 19.0646C45.7368 19.0646 42.1429 15.4707 42.1429 11.0374ZM50.1701 1.0034C44.6284 1.0034 40.136 5.49578 40.136 11.0374C40.136 16.579 44.6284 21.0714 50.1701 21.0714C55.7117 21.0714 60.2041 16.579 60.2041 11.0374C60.2041 5.49578 55.7117 1.0034 50.1701 1.0034ZM47.1317 12.8082C47.0014 12.2696 46.4591 11.9386 45.9205 12.069C45.3818 12.1993 45.0509 12.7416 45.1812 13.2802C45.445 14.3704 46.092 15.3311 47.0004 16.0123C47.9077 16.6928 49.0254 17.0578 50.1701 17.0578C51.3147 17.0578 52.4325 16.6928 53.3397 16.0123C54.2481 15.3311 54.8951 14.3704 55.1589 13.2802C55.2893 12.7416 54.9583 12.1993 54.4196 12.069C53.881 11.9386 53.3387 12.2696 53.2084 12.8082C53.0585 13.4279 52.6858 13.9943 52.1357 14.4069C51.5845 14.8203 50.8915 15.051 50.1701 15.051C49.4486 15.051 48.7557 14.8203 48.2045 14.4069C47.6543 13.9943 47.2816 13.4279 47.1317 12.8082ZM48.3424 10.0179C47.7972 10.1168 47.2749 9.75504 47.176 9.20978C47.1716 9.18554 47.166 9.16366 47.1599 9.14407C47.1537 9.16366 47.1481 9.18554 47.1437 9.20978C47.0448 9.75504 46.5225 10.1168 45.9773 10.0179C45.432 9.91893 45.0702 9.3967 45.1692 8.85144C45.2527 8.3913 45.4643 7.94348 45.8084 7.5993C46.1572 7.25056 46.6312 7.02381 47.1599 7.02381C47.6885 7.02381 48.1625 7.25056 48.5113 7.5993C48.8555 7.94348 49.067 8.3913 49.1505 8.85144C49.2495 9.3967 48.8877 9.91893 48.3424 10.0179ZM53.1964 9.20978C53.2953 9.75504 53.8176 10.1168 54.3628 10.0179C54.9081 9.91893 55.2699 9.3967 55.1709 8.85144C55.0874 8.3913 54.8759 7.94348 54.5317 7.5993C54.1829 7.25056 53.7089 7.02381 53.1803 7.02381C52.6516 7.02381 52.1776 7.25056 51.8288 7.5993C51.4847 7.94348 51.2731 8.3913 51.1896 8.85144C51.0906 9.3967 51.4524 9.91893 51.9977 10.0179C52.5429 10.1168 53.0652 9.75504 53.1641 9.20978C53.1685 9.18554 53.1741 9.16366 53.1803 9.14407C53.1864 9.16366 53.192 9.18554 53.1964 9.20978Z" fill="#777E91"/>
<path fill-rule="evenodd" clip-rule="evenodd" d="M96.3903 1.20351C98.4579 0.342009 100.532 2.41626 99.6707 4.48386L93.727 18.7487C92.5646 21.5384 88.476 21.0669 87.9791 18.0858L87.2376 13.6366L82.7884 12.8951C79.8073 12.3982 79.3358 8.30956 82.1255 7.14718L96.3903 1.20351ZM97.8182 3.71201C97.9905 3.29849 97.5757 2.88364 97.1622 3.05594L82.8974 8.99961C81.9675 9.38707 82.1246 10.75 83.1183 10.9156L87.5675 11.6571C88.4133 11.7981 89.0761 12.4609 89.2171 13.3067L89.9586 17.7558C90.1242 18.7495 91.4871 18.9067 91.8746 17.9768L97.8182 3.71201Z" fill="#777E91"/>
<path fill-rule="evenodd" clip-rule="evenodd" d="M10.034 3.0102C8.07514 3.0102 6.26941 3.17176 4.82004 3.36317C3.51564 3.53545 2.53205 4.51904 2.35977 5.82345C2.16836 7.27281 2.0068 9.07854 2.0068 11.0374C2.0068 12.9963 2.16835 14.802 2.35977 16.2514C2.53205 17.5558 3.51564 18.5394 4.82004 18.7117C6.26941 18.9031 8.07514 19.0646 10.034 19.0646C11.9929 19.0646 13.7986 18.9031 15.248 18.7117C16.5524 18.5394 17.536 17.5558 17.7083 16.2514C17.8997 14.802 18.0612 12.9963 18.0612 11.0374C18.0612 9.07854 17.8997 7.27282 17.7083 5.82345C17.536 4.51904 16.5524 3.53545 15.248 3.36317C13.7986 3.17176 11.9929 3.0102 10.034 3.0102ZM4.55729 1.37365C2.35302 1.66477 0.661366 3.35642 0.370248 5.56069C0.170111 7.07607 0 8.97169 0 11.0374C0 13.1031 0.170111 14.9988 0.370248 16.5141C0.661366 18.7184 2.35302 20.4101 4.55729 20.7012C6.07267 20.9013 7.96828 21.0714 10.034 21.0714C12.0997 21.0714 13.9954 20.9013 15.5107 20.7012C17.715 20.4101 19.4067 18.7184 19.6978 16.5141C19.8979 14.9988 20.068 13.1031 20.068 11.0374C20.068 8.97169 19.8979 7.07607 19.6978 5.56069C19.4067 3.35642 17.715 1.66477 15.5107 1.37365C13.9954 1.17351 12.0997 1.0034 10.034 1.0034C7.96828 1.0034 6.07267 1.17351 4.55729 1.37365Z" fill="#777E91"/>
<path d="M7.02442 10.034C8.13275 10.034 9.03122 9.13554 9.03122 8.02721C9.03122 6.91888 8.13275 6.02041 7.02442 6.02041C5.91609 6.02041 5.01762 6.91888 5.01762 8.02721C5.01762 9.13554 5.91609 10.034 7.02442 10.034Z" fill="#777E91"/>
<path d="M16.1768 11.7471L17.9772 13.5475C17.9151 14.4869 17.8243 15.3586 17.7243 16.1327L14.7577 13.1661C14.3659 12.7743 13.7306 12.7743 13.3387 13.1661L11.1598 15.3451C9.9842 16.5207 8.07824 16.5207 6.90268 15.3451L6.73053 15.1729C6.33867 14.7811 5.70336 14.7811 5.31151 15.1729L2.89425 17.5902C2.61422 17.2105 2.42686 16.7548 2.36037 16.2514C2.32411 15.9768 2.28892 15.6895 2.25569 15.3907L3.89248 13.7539C5.06804 12.5784 6.97399 12.5784 8.14955 13.7539L8.32171 13.9261C8.71356 14.3179 9.34888 14.3179 9.74073 13.9261L11.9197 11.7471C13.0952 10.5716 15.0012 10.5716 16.1768 11.7471Z" fill="#777E91"/>
<path fill-rule="evenodd" clip-rule="evenodd" d="M130.565 21.3682C133.158 19.2444 138 14.541 138 9.03061C138 4.04314 133.957 0 128.969 0C123.982 0 119.939 4.04314 119.939 9.03061C119.939 14.541 124.781 19.2444 127.374 21.3682C128.314 22.1382 129.625 22.1382 130.565 21.3682ZM128.969 11.0374C130.632 11.0374 131.98 9.6897 131.98 8.02721C131.98 6.36472 130.632 5.01701 128.969 5.01701C127.307 5.01701 125.959 6.36472 125.959 8.02721C125.959 9.6897 127.307 11.0374 128.969 11.0374Z" fill="#777E91"/>
</svg>
