<svg width="15" height="15" viewBox="0 0 15 15" fill="none" xmlns="http://www.w3.org/2000/svg">
<path d="M5.12656 12.1861H4.79039C2.10105 12.1861 0.756377 11.5137 0.756377 8.15206V4.79039C0.756377 2.10105 2.10105 0.756377 4.79039 0.756377H10.1691C12.8584 0.756377 14.2031 2.10105 14.2031 4.79039V8.15206C14.2031 10.8414 12.8584 12.1861 10.1691 12.1861H9.8329C9.62448 12.1861 9.42278 12.2869 9.29503 12.455L8.28653 13.7997C7.84279 14.3913 7.11667 14.3913 6.67293 13.7997L5.66442 12.455C5.55685 12.3071 5.30809 12.1861 5.12656 12.1861Z" stroke="#9EA3A9" stroke-width="1.5" stroke-miterlimit="10" stroke-linecap="round" stroke-linejoin="round"/>
<path d="M10.1673 6.80723H10.1734" stroke="#9EA3A9" stroke-width="2" stroke-linecap="round" stroke-linejoin="round"/>
<path d="M7.47768 6.80723H7.48372" stroke="#9EA3A9" stroke-width="2" stroke-linecap="round" stroke-linejoin="round"/>
<path d="M4.78702 6.80723H4.79306" stroke="#9EA3A9" stroke-width="2" stroke-linecap="round" stroke-linejoin="round"/>
</svg>
