<svg width="23" height="23" viewBox="0 0 23 23" fill="none" xmlns="http://www.w3.org/2000/svg">
<path d="M11.5008 14.8535C13.6187 14.8535 15.3341 13.1381 15.3341 11.0202V5.74944C15.3341 3.63154 13.6187 1.91613 11.5008 1.91613C9.38289 1.91613 7.66749 3.63154 7.66749 5.74944V11.0202C7.66749 13.1381 9.38289 14.8535 11.5008 14.8535Z" stroke="white" stroke-width="1.66129" stroke-linecap="round" stroke-linejoin="round"/>
<path d="M4.17038 9.24747V10.8766C4.17038 14.9208 7.45744 18.2078 11.5016 18.2078C15.5457 18.2078 18.8328 14.9208 18.8328 10.8766V9.24747" stroke="white" stroke-width="1.66129" stroke-linecap="round" stroke-linejoin="round"/>
<path d="M10.1689 6.16202C11.0314 5.84577 11.9706 5.84577 12.8331 6.16202" stroke="white" stroke-width="1.66129" stroke-linecap="round" stroke-linejoin="round"/>
<path d="M10.7341 8.19321C11.242 8.05904 11.7691 8.05904 12.277 8.19321" stroke="white" stroke-width="1.66129" stroke-linecap="round" stroke-linejoin="round"/>
<path d="M11.5007 18.2075V21.0824" stroke="white" stroke-width="1.66129" stroke-linecap="round" stroke-linejoin="round"/>
</svg>
